<?xml version="1.0" encoding="utf-8"?>
<!-- Generator: Adobe Illustrator 17.0.0, SVG Export Plug-In . SVG Version: 6.00 Build 0)  -->
<!DOCTYPE svg PUBLIC "-//W3C//DTD SVG 1.1 Tiny//EN" "http://www.w3.org/Graphics/SVG/1.1/DTD/svg11-tiny.dtd" [
	<!ENTITY ns_extend "http://ns.adobe.com/Extensibility/1.0/">
	<!ENTITY ns_ai "http://ns.adobe.com/AdobeIllustrator/10.0/">
	<!ENTITY ns_graphs "http://ns.adobe.com/Graphs/1.0/">
	<!ENTITY ns_vars "http://ns.adobe.com/Variables/1.0/">
	<!ENTITY ns_imrep "http://ns.adobe.com/ImageReplacement/1.0/">
	<!ENTITY ns_sfw "http://ns.adobe.com/SaveForWeb/1.0/">
	<!ENTITY ns_custom "http://ns.adobe.com/GenericCustomNamespace/1.0/">
	<!ENTITY ns_adobe_xpath "http://ns.adobe.com/XPath/1.0/">
]>
<svg version="1.1" baseProfile="tiny" id="Ebene_1" xmlns:x="&ns_extend;" xmlns:i="&ns_ai;" xmlns:graph="&ns_graphs;"
	 xmlns="http://www.w3.org/2000/svg" xmlns:xlink="http://www.w3.org/1999/xlink" x="0px" y="0px" width="85.039px"
	 height="39.118px" viewBox="0 0 85.039 39.118" xml:space="preserve">
<metadata>
	<sfw  xmlns="&ns_sfw;">
		<slices></slices>
		<sliceSourceBounds  width="85.039" height="39.118" y="-39.118" x="0" bottomLeftOrigin="true"></sliceSourceBounds>
	</sfw>
</metadata>
<g>
	<path fill="#FFFFFF" d="M7.654,14.881V8.079h15.307l0-7.653H0V30.4c0,4.58,3.712,8.292,8.291,8.292l14.669,0.001v-7.653H7.654
		v-8.504H20.41v-7.653H7.654z"/>
	<path fill="#FFFFFF" d="M49.748,22.11v-7.654l-12.13,0.001c-4.573,0.006-8.279,3.715-8.279,8.29v15.946h7.654V22.11H49.748z"/>
	<path fill="#FFFFFF" d="M53.15,8.079V0.425h-11.48c0,2.746-0.59,5.343-1.639,7.653H53.15z"/>
	<path fill="#CB1214" d="M38.268,0.425h-8.929v13.388C34.514,12.025,38.268,6.708,38.268,0.425"/>
	<path fill="#FFFFFF" d="M84.189,2.551c0,0-3.827-2.551-10.63-2.551c-11.48,0-17.433,8.504-17.433,19.559
		c0,11.055,5.953,19.559,17.433,19.559c8.504,0,11.48-2.976,11.48-2.976V18.283h-7.653v12.756c0,0-0.851,0.425-3.827,0.425
		c-6.378,0-9.78-4.677-9.78-11.905c0-7.228,3.402-11.906,9.78-11.906c5.102,0,7.653,1.701,7.653,1.701L84.189,2.551z"/>
</g>
</svg>
