<?xml version="1.0" standalone="no"?>
<!DOCTYPE svg PUBLIC "-//W3C//DTD SVG 1.1//EN" "http://www.w3.org/Graphics/SVG/1.1/DTD/svg11.dtd" >
<svg xmlns="http://www.w3.org/2000/svg">
<metadata>Generated by IcoMoon</metadata>
<defs>
<font id="icomoon" horiz-adv-x="1024">
<font-face units-per-em="1024" ascent="960" descent="-64" />
<missing-glyph horiz-adv-x="1024" />
<glyph unicode="&#x20;" horiz-adv-x="512" d="" />
<glyph unicode="&#xe900;" glyph-name="alert-round" d="M510.082 960c-283.805 0-510.082-230.112-510.082-510.082s230.112-510.082 510.082-510.082 510.082 226.277 510.082 506.247-226.277 513.918-510.082 513.918zM559.94 192.959h-103.551v99.715h103.551v-99.715zM559.94 396.225h-103.551v306.816h103.551v-306.816z" />
<glyph unicode="&#xe901;" glyph-name="alert-triangle" d="M513.747 890.102l-513.747-884.205h1024l-510.253 884.205zM559.181 145.693h-94.362v94.362h94.362v-94.362zM468.314 330.922v185.229h94.362v-185.229h-94.362z" />
<glyph unicode="&#xe902;" glyph-name="arrow-angle-down" d="M721.762 360.035l-85.709 85.709-212.018-216.529v550.344h599.965v121.797h-721.762v-672.141l-216.529 216.529-85.709-85.709 365.392-360.881z" />
<glyph unicode="&#xe903;" glyph-name="arrow-angle-left" d="M424.035 238.238l85.709 85.709-216.529 216.529h550.344v-604.476h121.797v721.762h-672.141l216.529 216.529-85.709 85.709-360.881-360.881z" />
<glyph unicode="&#xe904;" glyph-name="arrow-angle-right" d="M599.965 657.762l-85.709-85.709 216.529-216.529h-550.344v604.476h-121.797v-721.762h672.141l-216.529-216.529 85.709-85.709 360.881 360.881z" />
<glyph unicode="&#xe905;" glyph-name="arrow-angle-up" d="M302.238 540.476l85.709-85.709 216.529 216.529v-550.344h-604.476v-121.797h726.273v672.141l216.529-216.529 81.198 85.709-360.881 360.881z" />
<glyph unicode="&#xe906;" glyph-name="arrow-down" d="M1024 646.4l-121.6 115.2-390.4-390.4-390.4 390.4-121.6-115.2 512-512z" />
<glyph unicode="&#xe907;" glyph-name="arrow-left" d="M710.4-64l115.2 121.6-390.4 390.4 390.4 390.4-115.2 121.6-512-512z" />
<glyph unicode="&#xe908;" glyph-name="arrow-line-down" d="M1024 448l-90.916 90.916-358.879-358.879v779.963h-124.411v-779.963l-358.879 358.879-90.916-90.916 512-512z" />
<glyph unicode="&#xe909;" glyph-name="arrow-line-left" d="M512-64l90.916 90.916-358.879 358.879h779.963v124.411h-779.963l358.879 358.879-90.916 90.916-512-512z" />
<glyph unicode="&#xe90a;" glyph-name="arrow-line-right" d="M512 960l-90.916-90.916 358.879-358.879h-779.963v-124.411h779.963l-358.879-358.879 90.916-90.916 512 512z" />
<glyph unicode="&#xe90b;" glyph-name="arrow-line-up" d="M0 448l90.916-90.916 358.879 358.879v-779.963h124.411v779.963l358.879-358.879 90.916 90.916-512 512z" />
<glyph unicode="&#xe90c;" glyph-name="arrow-right" d="M313.6 960l-115.2-121.6 390.4-390.4-390.4-390.4 115.2-121.6 512 512z" />
<glyph unicode="&#xe90d;" glyph-name="arrow-up" d="M0 249.6l121.6-115.2 390.4 390.4 390.4-390.4 121.6 115.2-512 512z" />
<glyph unicode="&#xe90e;" glyph-name="at" d="M510.082 960c-283.805 0-510.082-230.112-510.082-510.082s230.112-510.082 510.082-510.082h256.959v103.551h-256.959c-222.442 0-410.367 187.925-410.367 410.367s187.925 406.532 410.367 406.532 410.367-187.925 410.367-410.367v-72.869c0-42.187-34.517-80.539-76.704-80.539s-76.704 38.352-76.704 80.539v72.869c0 141.903-115.056 256.959-256.959 256.959s-256.959-115.056-256.959-256.959 115.056-256.959 256.959-256.959c69.034 0 134.232 26.846 180.255 76.704 34.517-46.022 92.045-76.704 149.573-76.704 99.715 0 180.255 80.539 180.255 184.090v72.869c0 283.805-226.277 510.082-510.082 510.082zM510.082 296.509c-84.375 0-153.408 69.034-153.408 153.408s69.034 153.408 153.408 153.408 153.408-69.034 153.408-153.408-69.034-153.408-153.408-153.408z" />
<glyph unicode="&#xe90f;" glyph-name="check" d="M941.209 837.991l-614.4-614.4-244.017 244.017-82.791-82.791 326.809-322.451 697.191 697.191z" />
<glyph unicode="&#xe910;" glyph-name="check-box" d="M908.8 960h-793.6c-64 0-115.2-51.2-115.2-115.2v-797.867c0-64 51.2-115.2 115.2-115.2h797.867c64 0 115.2 51.2 115.2 115.2v797.867c-4.267 64-55.467 115.2-119.467 115.2zM396.8 162.133l-281.6 285.867 81.067 81.067 204.8-204.8 430.933 430.933 81.067-81.067-516.267-512z" />
<glyph unicode="&#xe911;" glyph-name="close" d="M1018.524 861.433l-98.567 98.567-410.695-405.219-410.695 405.219-98.567-98.567 405.219-410.695-405.219-410.695 98.567-98.567 410.695 405.219 410.695-405.219 98.567 98.567-405.219 410.695z" />
<glyph unicode="&#xe912;" glyph-name="close-round" d="M510.082 960c-283.805 0-510.082-230.112-510.082-510.082s230.112-510.082 510.082-510.082 510.082 226.277 510.082 510.082-226.277 510.082-510.082 510.082zM767.041 265.828l-72.869-72.869-184.090 184.090-184.090-184.090-72.869 72.869 184.090 184.090-184.090 184.090 72.869 72.869 184.090-184.090 184.090 184.090 72.869-72.869-184.090-184.090 184.090-184.090z" />
<glyph unicode="&#xe913;" glyph-name="connect" d="M819.97 240.12c-38.496 0-73.143-15.398-100.090-38.496l-365.714 211.729c0 11.549 3.85 23.098 3.85 34.647s-3.85 23.098-3.85 34.647l361.865 211.729c26.947-26.947 61.594-42.346 103.94-42.346 84.692 0 153.985 69.293 153.985 153.985s-69.293 153.985-153.985 153.985-153.985-69.293-153.985-153.985c0-11.549 3.85-23.098 3.85-34.647l-361.865-211.729c-26.947 26.947-61.594 42.346-103.94 42.346-84.692 0-153.985-69.293-153.985-153.985s69.293-153.985 153.985-153.985c42.346 0 76.992 15.398 103.94 42.346l365.714-211.729c-3.85-11.549-3.85-23.098-3.85-34.647 0-80.842 65.444-150.135 150.135-150.135s150.135 65.444 150.135 150.135c0 80.842-69.293 150.135-150.135 150.135z" />
<glyph unicode="&#xe914;" glyph-name="copyright" d="M510.082 960c-283.805 0-510.082-230.112-510.082-510.082s230.112-510.082 510.082-510.082 510.082 226.277 510.082 510.082-226.277 510.082-510.082 510.082zM510.082 39.551c-226.277 0-410.367 184.090-410.367 410.367s184.090 410.367 410.367 410.367 410.367-184.090 410.367-410.367-184.090-410.367-410.367-410.367zM502.412 595.655c65.199-3.835 84.375-57.528 84.375-84.375h92.045c-3.835 99.715-76.704 164.914-176.419 164.914-111.221 0-195.596-72.869-195.596-230.112 0-99.715 46.022-218.607 195.596-218.607 115.056 0 172.584 84.375 176.419 149.573h-92.045c0-30.682-23.011-69.034-84.375-72.869-65.199 3.835-95.88 53.693-95.88 138.067 0 149.573 65.199 153.408 95.88 153.408z" />
<glyph unicode="&#xe915;" glyph-name="grid" d="M384.601 190.798h254.798v-254.798h-254.798v254.798zM0 960h254.798v-254.798h-254.798v254.798zM0 190.798h254.798v-254.798h-254.798v254.798zM0 575.399h254.798v-254.798h-254.798v254.798zM384.601 575.399h254.798v-254.798h-254.798v254.798zM769.202 575.399h254.798v-254.798h-254.798v254.798zM769.202 960h254.798v-254.798h-254.798v254.798zM769.202 190.798h254.798v-254.798h-254.798v254.798zM384.601 960h254.798v-254.798h-254.798v254.798z" />
<glyph unicode="&#xe916;" glyph-name="home" d="M510.082 883.296l-510.082-460.225h153.408v-410.367h253.124v306.816h207.101v-306.816h253.124v410.367h153.408z" />
<glyph unicode="&#xe917;" glyph-name="hour" d="M510.082 960c-283.805 0-510.082-230.112-510.082-510.082s230.112-510.082 510.082-510.082c283.805 0 510.082 230.112 510.082 510.082s-226.277 510.082-510.082 510.082zM510.082 39.551c-226.277 0-410.367 184.090-410.367 410.367s184.090 410.367 410.367 410.367 410.367-184.090 410.367-410.367-184.090-410.367-410.367-410.367zM536.929 706.876h-76.704v-306.816l268.464-161.079 38.352 61.363-230.112 138.067z" />
<glyph unicode="&#xe918;" glyph-name="list-1" d="M170.667 503.467h682.667v-115.2h-682.667v115.2zM396.8 221.867h226.133v-115.2h-226.133v115.2zM0 789.333h1024v-115.2h-1024v115.2z" />
<glyph unicode="&#xe919;" glyph-name="list-2" d="M226.133 733.867h797.867v-115.2h-797.867v115.2zM0 277.333h797.867v-115.2h-797.867v115.2zM115.2 503.467h797.867v-115.2h-797.867v115.2z" />
<glyph unicode="&#xe91a;" glyph-name="mobile-menu" d="M0 221.867h1024v-115.2h-1024v115.2zM0 789.333h1024v-115.2h-1024v115.2zM0 503.467h1024v-115.2h-1024v115.2z" />
<glyph unicode="&#xe91b;" glyph-name="play" d="M1000.989 695.371c-11.506 42.187-46.022 76.704-88.21 88.21-84.375 23.011-402.697 23.011-402.697 23.011s-318.322 0-398.861-19.176c-42.187-11.506-76.704-46.022-88.21-92.045-23.011-80.539-23.011-245.453-23.011-245.453s0-168.749 19.176-245.453c11.506-42.187 46.022-76.704 88.21-92.045 80.539-23.011 398.861-23.011 398.861-23.011s318.322 0 398.861 19.176c42.187 11.506 76.704 46.022 88.21 88.21 19.176 80.539 19.176 245.453 19.176 245.453s11.506 172.584-11.506 253.124zM406.532 296.509v0 306.816l264.629-153.408-264.629-153.408z" />
<glyph unicode="&#xe91c;" glyph-name="print" d="M203.266 910.142h613.633v-203.266h-613.633v203.266zM866.757 653.184h-713.348c-84.375 0-153.408-69.034-153.408-153.408v-306.816h203.266v-203.266h613.633v203.266h203.266v306.816c0 84.375-69.034 153.408-153.408 153.408zM713.348 93.243h-406.532v253.124h410.367v-253.124zM866.757 449.918c-26.846 0-49.858 23.011-49.858 49.858s23.011 49.858 49.858 49.858c26.846 0 49.858-23.011 49.858-49.858 3.835-26.846-19.176-49.858-49.858-49.858z" />
<glyph unicode="&#xe91d;" glyph-name="search" d="M733.94 313.957h-48.343l-17.579 17.579c57.133 65.923 92.292 153.82 92.292 246.112 0 210.953-171.399 382.352-382.352 382.352-206.558 0-377.957-171.399-377.957-382.352s171.399-382.352 382.352-382.352c92.292 0 180.189 35.159 246.112 92.292l17.579-17.579v-48.343l294.455-294.455 87.897 87.897-294.455 298.85zM382.352 313.957c-145.030 0-263.691 118.661-263.691 263.691s118.661 263.691 263.691 263.691 263.691-118.661 263.691-263.691-118.661-263.691-263.691-263.691z" />
<glyph unicode="&#xe91e;" glyph-name="shield" d="M513.747 960l-419.386-188.724v-279.59c0-258.621 178.239-499.768 419.386-559.181 241.147 59.413 419.386 300.56 419.386 559.181v279.59l-419.386 188.724zM513.747 30.362v415.891h-325.024v265.611l325.024 143.29v-408.901h325.024c-24.464-192.218-150.28-363.468-325.024-415.891z" />
<glyph unicode="&#xe91f;" glyph-name="social-facebook" d="M510.082 960c-283.805 0-510.082-230.112-510.082-510.082s230.112-510.082 510.082-510.082c3.835 0 7.67 0 7.67 0v395.026h-111.221v130.397h111.221v95.88c0 107.386 65.199 168.749 164.914 168.749 46.022 0 88.21-3.835 99.715-3.835v-115.056h-69.034c-53.693 0-65.199-26.846-65.199-61.363v-80.539h130.397l-15.341-126.562h-111.221v-379.685c214.772 61.363 372.015 256.959 372.015 490.906-3.835 279.97-230.112 506.247-513.918 506.247z" />
<glyph unicode="&#xe920;" glyph-name="social-linkedin" d="M920.449 960h-820.734c-57.528 0-103.551-46.022-103.551-103.551v-816.899c0-57.528 46.022-103.551 103.551-103.551h816.899c57.528 0 103.551 46.022 103.551 103.551v820.734c0 53.693-46.022 99.715-99.715 99.715zM306.816 93.243h-153.408v460.225h153.408v-460.225zM230.112 637.843c-49.858 0-92.045 42.187-92.045 92.045s42.187 92.045 92.045 92.045c49.858 0 92.045-42.187 92.045-92.045s-42.187-92.045-92.045-92.045zM866.757 93.243h-153.408v268.464c0 42.187-34.517 76.704-76.704 76.704s-76.704-34.517-76.704-76.704v-272.3h-153.408v460.225h153.408v-61.363c26.846 42.187 80.539 72.869 126.562 72.869 95.88 0 180.255-80.539 180.255-180.255v-287.64z" />
<glyph unicode="&#xe921;" glyph-name="social-twitter" d="M1020.165 764.404c-38.352-15.341-76.704-26.846-122.727-34.517 42.187 26.846 76.704 65.199 92.045 115.056-42.187-23.011-84.375-42.187-134.232-49.858-38.352 42.187-92.045 65.199-153.408 65.199-115.056 0-210.936-95.88-210.936-210.936 0-15.341 0-30.682 3.835-46.022-172.584 7.67-329.828 92.045-433.378 218.607-19.176-30.682-26.846-69.034-26.846-107.386 0-72.869 38.352-138.067 92.045-172.584-34.517 0-65.199 11.506-95.88 26.846v0c0-103.551 72.869-187.925 168.749-207.101-15.341-3.835-34.517-7.67-53.693-7.67-11.506 0-26.846 0-38.352 3.835 26.846-84.375 103.551-145.738 195.596-145.738-72.869-57.528-161.079-88.21-260.794-88.21-15.341 0-34.517 0-49.858 3.835 92.045-61.363 203.266-95.88 322.157-95.88 387.356 0 598.292 318.322 598.292 598.292 0 7.67 0 19.176 0 26.846 46.022 26.846 80.539 65.199 107.386 107.386z" />
<glyph unicode="&#xe922;" glyph-name="square" d="M908.8 960h-793.6c-64 0-115.2-51.2-115.2-115.2v-797.867c0-64 51.2-115.2 115.2-115.2h797.867c64 0 115.2 51.2 115.2 115.2v797.867c-4.267 64-55.467 115.2-119.467 115.2zM908.8 51.2h-793.6v793.6h797.867v-793.6z" />
<glyph unicode="&#xe923;" glyph-name="triangle-down" d="M0 700.179l512-512 512 512z" />
<glyph unicode="&#xe924;" glyph-name="triangle-left" d="M764.179 967.642l-512-519.642 512-512z" />
<glyph unicode="&#xe925;" glyph-name="triangle-right" d="M252.179-71.642l512 519.642-512 512z" />
<glyph unicode="&#xe926;" glyph-name="triangle-up" d="M1024 188.179l-512 512-512-512z" />
<glyph unicode="&#xe927;" glyph-name="world" d="M510.082 960c-283.805 0-510.082-230.112-510.082-510.082s230.112-510.082 510.082-510.082c283.805 0 510.082 230.112 510.082 510.082s-226.277 510.082-510.082 510.082zM862.921 653.184h-149.573c-15.341 65.199-38.352 126.562-69.034 180.255 92.045-30.682 168.749-95.88 218.607-180.255zM510.082 856.449c42.187-61.363 76.704-130.397 95.88-203.266h-195.596c23.011 72.869 57.528 141.903 99.715 203.266zM115.056 346.367c-7.67 34.517-11.506 65.199-11.506 103.551s3.835 69.034 11.506 103.551h172.584c-3.835-34.517-7.67-69.034-7.67-103.551s3.835-69.034 7.67-103.551h-172.584zM157.243 246.652h149.573c15.341-65.199 38.352-126.562 69.034-180.255-92.045 30.682-168.749 95.88-218.607 180.255zM306.816 653.184h-149.573c49.858 84.375 126.562 149.573 222.442 180.255-34.517-53.693-57.528-115.056-72.869-180.255zM510.082 43.386c-42.187 61.363-76.704 130.397-95.88 203.266h195.596c-23.011-72.869-57.528-141.903-99.715-203.266zM628.974 346.367h-237.783c-3.835 34.517-7.67 69.034-7.67 103.551s3.835 69.034 7.67 103.551h237.783c3.835-34.517 7.67-69.034 7.67-103.551s-3.835-69.034-7.67-103.551zM644.315 62.562c30.682 57.528 53.693 118.891 69.034 180.255h149.573c-49.858-80.539-126.562-145.738-218.607-180.255zM732.524 346.367c3.835 34.517 7.67 69.034 7.67 103.551s-3.835 69.034-7.67 103.551h172.584c7.67-34.517 11.506-65.199 11.506-103.551s-3.835-69.034-11.506-103.551h-172.584z" />
<glyph unicode="&#xe928;" glyph-name="breadcrumb" d="M900.812 575.038c-53.895 0-100.090-30.797-115.489-76.992h-146.286c-23.098 46.195-61.594 76.992-115.489 76.992s-100.090-30.797-115.489-76.992h-146.286c-23.098 46.195-61.594 76.992-115.489 76.992-84.692 0-146.286-61.594-146.286-130.887s61.594-130.887 130.887-130.887c53.895 0 100.090 30.797 115.489 76.992h146.286c23.098-46.195 61.594-76.992 115.489-76.992s100.090 30.797 115.489 76.992h146.286c23.098-46.195 61.594-76.992 115.489-76.992 69.293 0 130.887 53.895 130.887 130.887s-46.195 130.887-115.489 130.887z" />
<glyph unicode="&#xe929;" glyph-name="doc-pdf" d="M921.6 960h-614.4c-56.32 0-102.4-46.080-102.4-102.4v-614.4c0-56.32 46.080-102.4 102.4-102.4h614.4c56.32 0 102.4 46.080 102.4 102.4v614.4c0 56.32-46.080 102.4-102.4 102.4zM486.4 576c0-40.96-35.84-76.8-76.8-76.8h-51.2v-102.4h-76.8v307.2h128c40.96 0 76.8-35.84 76.8-76.8v-51.2zM742.4 473.6c0-40.96-35.84-76.8-76.8-76.8h-128v307.2h128c40.96 0 76.8-35.84 76.8-76.8v-153.6zM947.2 627.2h-76.8v-51.2h76.8v-76.8h-76.8v-102.4h-76.8v307.2h153.6v-76.8zM358.4 576h51.2v51.2h-51.2v-51.2zM102.4 755.2h-102.4v-716.8c0-56.32 46.080-102.4 102.4-102.4h716.8v102.4h-716.8v716.8zM614.4 473.6h51.2v153.6h-51.2v-153.6z" />
</font>
</defs>
</svg>
